<?xml version="1.0" standalone="no"?>
<!DOCTYPE svg PUBLIC "-//W3C//DTD SVG 20010904//EN"
 "http://www.w3.org/TR/2001/REC-SVG-20010904/DTD/svg10.dtd">
<svg version="1.0" xmlns="http://www.w3.org/2000/svg"
 width="200.000000pt" height="200.000000pt" viewBox="0 0 200.000000 200.000000"
 preserveAspectRatio="xMidYMid meet">
<metadata>
Created by potrace 1.11, written by Peter Selinger 2001-2013
</metadata>
<g transform="translate(0.000000,200.000000) scale(0.100000,-0.100000)"
fill="#000000" stroke="none">
<path d="M937 1993 c-1 0 -24 -3 -52 -7 -385 -42 -722 -317 -844 -689 -32 -99
-34 -113 -38 -297 -4 -179 -2 -199 40 -330 11 -36 20 -66 19 -67 -5 -10 91
-172 135 -230 116 -153 303 -290 465 -342 76 -25 91 -2 90 133 0 152 1 146
-24 138 -45 -15 -161 -6 -209 17 -59 28 -82 52 -118 127 -37 75 -88 129 -107
113 -11 -9 -14 -9 -14 0 0 9 -5 9 -21 0 -15 -8 -24 -8 -32 0 -6 6 -22 11 -36
11 -23 0 -23 1 -7 19 17 19 17 20 -16 26 -32 6 -34 9 -36 50 l-1 43 49 13 c28
7 50 16 50 21 0 13 22 9 42 -9 17 -15 18 -15 18 0 0 10 5 17 10 17 6 0 8 10 4
24 -3 13 -1 33 5 44 13 24 5 52 -15 52 -17 0 -19 41 -2 58 9 9 8 12 -5 12 -10
0 -14 5 -11 14 3 7 -2 16 -10 19 -9 4 -16 15 -16 25 0 10 -5 23 -11 29 -8 8
-5 13 10 18 22 7 29 25 10 25 -8 0 -8 4 -1 13 16 20 31 86 20 89 -6 2 -5 13 1
31 8 20 7 27 -2 27 -6 1 -2 9 11 19 12 11 22 24 22 30 0 6 11 17 25 23 28 13
30 19 13 36 -17 17 7 40 48 48 41 8 40 6 48 69 14 104 25 126 59 119 63 -12
86 -18 125 -36 l44 -19 52 25 c29 14 59 26 67 26 8 0 24 7 37 15 17 13 26 13
43 5 11 -6 26 -9 34 -7 7 3 17 1 23 -5 6 -6 15 -7 21 -4 6 4 44 8 85 9 44 2
80 8 90 16 13 11 17 11 22 -2 6 -17 41 -19 61 -5 7 6 19 5 30 0 10 -6 29 -8
43 -5 21 4 27 -1 37 -28 13 -35 20 -35 98 -6 22 8 56 18 76 21 33 5 36 3 46
-27 6 -18 14 -51 18 -74 8 -51 19 -63 59 -63 8 0 17 -13 21 -30 4 -16 15 -36
26 -44 11 -7 19 -17 18 -22 -4 -15 13 -64 21 -64 12 0 18 -48 7 -59 -7 -7 -2
-14 14 -21 18 -8 26 -20 27 -43 2 -17 6 -34 10 -37 12 -9 12 -48 0 -77 -20
-49 -19 -63 2 -63 23 0 24 -3 11 -28 -5 -9 -17 -34 -27 -55 -11 -21 -27 -43
-36 -48 -10 -5 -18 -16 -18 -23 0 -8 -7 -19 -15 -26 -8 -7 -15 -22 -15 -33 0
-11 -7 -29 -17 -39 -15 -17 -15 -18 0 -18 24 0 21 -17 -4 -23 -14 -4 -20 -11
-16 -21 4 -11 -5 -16 -41 -21 -26 -3 -58 -13 -72 -20 l-25 -14 25 -10 c24 -9
13 -16 -18 -12 -8 1 -16 -7 -19 -18 -3 -14 -12 -20 -27 -18 -16 1 -21 -3 -20
-20 1 -24 0 -24 -61 18 -48 32 -64 35 -127 25 -53 -8 -55 -11 -32 -37 35 -39
43 -90 44 -276 0 -249 0 -249 196 -157 57 27 162 93 192 121 147 136 222 236
287 376 19 42 32 77 30 77 -3 0 1 17 9 38 33 88 37 129 33 312 -4 194 -5 205
-39 304 -20 60 -94 216 -107 226 -3 3 -20 25 -36 49 -36 54 -133 155 -195 203
-92 71 -233 144 -327 169 -92 25 -112 29 -163 35 -50 6 -189 11 -193 7z"/>
<path d="M638 1107 c-2 -7 -4 -52 -3 -102 0 -77 3 -90 18 -93 14 -3 17 4 17
42 0 61 23 61 52 1 14 -28 29 -45 40 -45 15 0 16 4 8 26 -6 14 -17 36 -25 47
-19 27 -19 37 0 37 8 0 15 3 16 8 0 4 2 16 4 27 7 36 -20 58 -74 60 -31 2 -51
-1 -53 -8z m90 -45 c2 -16 -3 -25 -20 -31 -31 -12 -38 -6 -38 30 0 27 3 30 28
27 19 -2 28 -9 30 -26z"/>
<path d="M863 1068 c-73 -19 -79 -134 -9 -158 76 -25 126 48 92 131 -11 25
-47 37 -83 27z m40 -30 c24 -18 29 -58 11 -86 -32 -49 -94 0 -73 57 16 40 35
49 62 29z"/>
<path d="M1035 1070 c-35 -6 -32 -25 5 -26 45 -1 50 -4 50 -24 0 -16 -7 -20
-33 -20 -36 0 -67 -25 -67 -53 0 -22 38 -46 64 -40 11 2 32 5 46 6 23 2 25 6
26 57 0 30 -1 63 -4 72 -5 22 -49 36 -87 28z m60 -100 c3 -5 -6 -17 -20 -26
-20 -13 -28 -14 -40 -4 -12 10 -13 16 -4 26 13 16 55 19 64 4z"/>
<path d="M1242 1064 c-18 -7 -32 -9 -32 -4 0 6 -6 10 -14 10 -12 0 -15 -17
-15 -80 0 -63 3 -80 14 -80 11 0 15 13 15 50 0 38 5 54 22 70 27 25 38 25 45
0 3 -12 14 -20 25 -20 14 0 18 5 14 16 -3 9 -6 19 -6 22 0 4 -8 12 -18 18 -14
9 -26 9 -50 -2z"/>
<path d="M1395 1061 c-3 -5 2 -17 11 -26 15 -14 19 -15 32 -2 8 8 11 20 8 26
-9 13 -43 15 -51 2z"/>
<path d="M1401 946 c-8 -10 -9 -16 -1 -21 19 -12 10 -35 -17 -47 l-28 -12 29
-4 c32 -4 54 13 61 47 8 45 -19 68 -44 37z"/>
<path d="M310 730 c0 -6 9 -27 20 -47 13 -24 18 -47 14 -70 -4 -28 -2 -34 20
-42 26 -11 96 -74 96 -88 0 -16 55 -70 90 -88 41 -22 135 -24 176 -3 19 9 31
26 41 59 7 26 20 52 28 59 20 17 19 30 -3 30 -10 0 -50 8 -88 18 -55 15 -75
16 -97 7 -36 -15 -52 -13 -105 10 -28 13 -45 27 -49 43 -3 13 -11 21 -18 18
-18 -6 -45 25 -45 52 0 15 -6 22 -19 22 -11 0 -26 7 -35 15 -17 17 -26 19 -26
5z"/>
</g>
</svg>
